<svg xmlns="http://www.w3.org/2000/svg" viewBox="0 0 842.16 241.43"><defs><style>.cls-1{fill:#191b26;}.cls-2{fill:#232132;}</style></defs><title>logo-detoure</title><g id="Logo_gris_detoure"><path class="cls-1" d="M23.67,203.69c-9.76,0-16.75,6.54-16.75,16s7,16.09,16.75,16.09c6.18,0,11.28-2,14.6-5.55l4,3.75c-4.21,4.66-10.75,7.43-18.9,7.43C9.7,241.42,0,232.52,0,219.7S9.79,198,23.4,198c7.61,0,13.88,2.37,18.18,6.37l-3.85,4.41A20.62,20.62,0,0,0,23.67,203.69Z"/><path class="cls-1" d="M149.23,198v6.2c-9.94-.16-16.12,5.48-16.92,14.13v22.87h-7v-43h7v9.56C135.44,201.49,141.26,198.06,149.23,198Z"/><path class="cls-1" d="M269.6,222.07H231.09c1.16,8.49,7.88,14.05,17.1,14.05a20.73,20.73,0,0,0,14.6-5.48l3.85,3.68c-4.47,4.49-11.1,7.1-19,7.1-13.88,0-23.47-8.9-23.47-21.72s9.68-21.64,23.38-21.72C262.79,198,270.32,207.53,269.6,222.07ZM263.33,217c-.45-8.33-6.54-13.72-15.76-13.72-9,0-15.49,5.39-16.48,13.72ZM249,191h-6.72l10.75-11,7.08,2.94Z"/><path class="cls-1" d="M381.19,241.18v-6.7c-3.76,4.66-9.76,6.94-17.28,6.94-9.76,0-16-5.63-16-13,0-7.51,6.54-12.25,17.64-12.33H381v-2.7c0-6.29-4.3-10.12-12.62-10.12-5.2,0-10,1.79-15,5l-2.95-4.49c6.08-3.68,11.19-5.8,19.25-5.8,11.64,0,18.09,5.63,18.18,14.78l.09,28.42Zm-.09-14.78v-5.23H366.42c-7.88,0-12,2.21-12,7s4.2,7.93,10.83,7.93C373.22,236.12,379.31,232.52,381.1,226.4Z"/><path class="cls-1" d="M498.25,238.24a20.21,20.21,0,0,1-10.66,3.18c-6.89.09-12-3.67-12-12.16V204.51h-6.81v-5h6.81V188.26h6.9v11.27h14.95v5H482.49v23.68c0,5.23,2.24,7.35,6.26,7.35a17.18,17.18,0,0,0,7.53-2.2Z"/><path class="cls-1" d="M587.09,185.89a4.57,4.57,0,0,1-9.13,0,4.57,4.57,0,0,1,9.13,0ZM586,198.22v43h-6.9v-43Z"/><path class="cls-1" d="M716.42,219.62c0,12.82-9.94,21.8-23.91,21.8s-23.92-9-23.92-21.8S678.45,198,692.51,198,716.42,206.88,716.42,219.62Zm-40.84.08c0,9.64,7,16.17,16.93,16.17s16.92-6.53,16.92-16.17c0-9.47-7.07-16.09-16.92-16.09S675.58,210.23,675.58,219.7Z"/><path class="cls-1" d="M842.16,214.72v26.46h-7V216.35c0-7.67-5-12.25-13.34-12.25-9.31.08-15.05,5.72-15.85,14.05v23h-7v-43h7v9.48c3.31-6.54,9.67-9.64,18.27-9.72C835.53,198,842.16,204.27,842.16,214.72Z"/><path class="cls-2" d="M841.87,128.47c1.64,12.18-9.07,23.4-23.48,22.44a22.5,22.5,0,0,1-21.23-22.51c0-12.66,10-22,23.17-22.4C831.57,105.62,843.64,115.94,841.87,128.47Z"/><path class="cls-2" d="M594.14,61.39A11.45,11.45,0,0,1,605.73,73c-.23,7.88-5.88,12-11.86,11.91a11.75,11.75,0,1,1,.27-23.5Z"/><path class="cls-2" d="M672.18,128.08c-7.37,0-14.53.89-21.38-.2-11.28-1.78-16.75-10.09-19.31-20.56a60.64,60.64,0,0,1-1.26-22.07C632,71.14,627,59.46,615.87,50.82c-5.41-4.19-12.18-5.9-19-6.57-16.92-1.69-29.36,7.08-40.56,18.2-3.76,3.73-7,8-10.58,12.21,6.09,3.43,11.11,7.3,14.94,12.59a24.92,24.92,0,0,1,4.86,14.65c.12,14.71,0,29.42,0,44.13,0,.74-.08,1.47-.15,2.5H551.35c-3.92,0-7.84.05-11.75,0a7.42,7.42,0,0,1-7.34-7c0-.57,0-1.15,0-1.72V13.44c0-.57,0-1.15,0-1.72.26-4.27,3.11-7.12,7.37-7.15,9.94-.05,19.91-.5,29.79.2,4.88.34,9.08-.59,13.57-1.88C590.17.83,597.56,1,605,1.62c15.13,1.22,28,7.54,39.9,16.41,3.83,2.86,6.08,2.63,10.55-.58,2.17-1.56,4.29-3.2,6.51-4.68A67.81,67.81,0,0,1,690.28,1.91c36.48-5.16,66.15,15.79,74.5,52,1.84,8,2.32,16.33,2.45,24.53.34,20.44.12,40.89.11,61.33,0,5.71-3.06,8.73-8.86,8.74H731.26c-6,0-9-2.88-9-8.92,0-16.52.31-33.06-.15-49.57a181.25,181.25,0,0,0-3-25.37,22,22,0,0,0-7.24-13.36A15.89,15.89,0,0,0,700.62,47c-3.14.13-6.36-.25-9.41.34A17.28,17.28,0,0,0,679.28,56a46.53,46.53,0,0,0-6.38,22c-.55,16-.52,32-.72,48.06C672.17,126.7,672.18,127.36,672.18,128.08Z"/><path class="cls-2" d="M353.65,75.44A75.77,75.77,0,0,1,359,47.32a76.82,76.82,0,0,1,15-24.08,70.88,70.88,0,0,1,22.74-16.5A67.34,67.34,0,0,1,425.39.67,69.17,69.17,0,0,1,453.34,6.4a67.9,67.9,0,0,1,22.74,16A75.57,75.57,0,0,1,491.23,47a87.24,87.24,0,0,1,5.56,31.83q0,4.05-2.19,6.07a7.47,7.47,0,0,1-5.22,2l-84.54.33c-1.8,0-2.75.51-2.86,1.52a6.72,6.72,0,0,0,1.18,3.87,23.34,23.34,0,0,0,10.94,10.11,36,36,0,0,0,15.33,3.36,34.63,34.63,0,0,0,13.3-2.86,26.34,26.34,0,0,0,11.62-9.6,8,8,0,0,1,5.39-3.2,7.25,7.25,0,0,1,6.06,1.86l22.91,17.85a6.52,6.52,0,0,1,3.2,5.22,9.91,9.91,0,0,1-1.52,5.89,67.81,67.81,0,0,1-26.1,21.89,78.87,78.87,0,0,1-34.86,7.75,77.61,77.61,0,0,1-29.3-5.56,72.85,72.85,0,0,1-40.42-39.24A75.4,75.4,0,0,1,353.65,75.44Zm88.91-25.26q4.05,0,1.69-3-6.06-6.39-18.19-6.4a30.12,30.12,0,0,0-9.43,1.35,23.58,23.58,0,0,0-6.74,3.37q-2.7,2-2.35,3.37c.22.9,1.56,1.34,4,1.34Z"/><path class="cls-2" d="M221.28,3.37c2,0,4.26.11,6.74.34s4.26,1.79,5.39,4.71l20.88,55.91c.67,1.8,1.57,2.75,2.69,2.86s1.91-.5,2.36-1.85L280.56,8.42c1.12-2.92,2.91-4.49,5.39-4.71s4.71-.34,6.73-.34H322q4,0,4.88,3.2a10.65,10.65,0,0,1-.17,6.23L277.87,143.48q-1.69,4.72-7.41,4.72H243.85a9.13,9.13,0,0,1-4.89-1.35,6.32,6.32,0,0,1-2.86-3.37L187.26,12.8a8.49,8.49,0,0,1-.33-6.23q1-3.19,5-3.2Z"/><path class="cls-2" d="M143.48,3.37A7.56,7.56,0,0,1,149,5.56a8,8,0,0,1,2.19,5.89v129a7.7,7.7,0,0,1-2.19,5.39,7.29,7.29,0,0,1-5.56,2.36h-29.3a8,8,0,0,1-5.05-1.35,5.93,5.93,0,0,0-3.54-.34q-2.19.35-6.23,1.35a83,83,0,0,1-11.62,2.52,84.71,84.71,0,0,1-12,.85,77.8,77.8,0,0,1-29.3-5.56A72.51,72.51,0,0,1,6.06,106.26,76.6,76.6,0,0,1,0,75.44,75.85,75.85,0,0,1,6.06,45,72.53,72.53,0,0,1,46.48,5.56,78.54,78.54,0,0,1,99.36,3.71q4,1,6.23,1.34a5.86,5.86,0,0,0,3.54-.33,8,8,0,0,1,5.05-1.35ZM44.8,75.44a29.6,29.6,0,0,0,2.69,12.8A32.55,32.55,0,0,0,54.39,98a27.42,27.42,0,0,0,9.77,6.06,33.7,33.7,0,0,0,11.62,2A30.92,30.92,0,0,0,97,98q9.09-8.08,9.09-22.57,0-14.14-9.09-22.06a31.33,31.33,0,0,0-21.22-7.91,33.7,33.7,0,0,0-11.62,2,29.12,29.12,0,0,0-9.77,5.89,31.21,31.21,0,0,0-6.9,9.43A28.57,28.57,0,0,0,44.8,75.44Z"/></g></svg>