<svg id="Calque_1" data-name="Calque 1" xmlns="http://www.w3.org/2000/svg" viewBox="0 0 407.05 316.2"><defs><style>.cls-1{fill:#4ecca3;}.cls-2{fill:none;stroke:#15141e;stroke-miterlimit:10;stroke-width:7px;}</style></defs><title>pictos avem</title><rect class="cls-1" x="189.39" y="156.09" width="217.67" height="156.6"/><line class="cls-2" x1="105.15" y1="6.98" x2="3.5" y2="6.98"/><line class="cls-2" x1="179.73" y1="42.56" x2="3.5" y2="42.56"/><line class="cls-2" x1="64.24" y1="76.7" x2="3.5" y2="76.7"/><line class="cls-2" x1="115.86" y1="76.7" x2="76.6" y2="76.7"/><line class="cls-2" x1="179.73" y1="76.7" x2="129.09" y2="76.7"/><line class="cls-2" x1="179.73" y1="109.96" x2="3.5" y2="109.96"/><polyline class="cls-2" points="341.2 109.96 230.72 109.96 230.72 3.5 354.68 3.5 354.68 109.96 341.2 109.96"/><polyline class="cls-2" points="316.5 312.7 3.5 312.7 3.5 156.09 354.68 156.09 354.68 312.7 316.5 312.7"/><polyline class="cls-2" points="189.39 244.03 194.61 240.81 205.01 234.39 165.6 210.08 154.46 203.21 154.46 215.99 154.46 265.58 170.2 255.87 176.54 251.96"/></svg>