<svg id="Calque_1" data-name="Calque 1" xmlns="http://www.w3.org/2000/svg" viewBox="0 0 347.99 358.2"><defs><style>.cls-1{fill:#4ecca3;}.cls-2,.cls-3{fill:none;stroke-miterlimit:10;stroke-width:7px;}.cls-2{stroke:#15141e;}.cls-3{stroke:#4ecca3;}</style></defs><title>pictos avem</title><rect class="cls-1" x="261.83" y="194.82" width="82.66" height="163.38"/><line class="cls-2" y1="3.5" x2="138.88" y2="3.5"/><line class="cls-2" x1="3.5" y1="3.5" x2="3.5" y2="270.15"/><line class="cls-2" x1="135.38" y1="3.5" x2="135.38" y2="270.15"/><circle class="cls-2" cx="69.44" cy="283.01" r="13.4"/><path class="cls-2" d="M3.5,269.61S3.42,327.2,69.44,327.2"/><path class="cls-2" d="M135.38,269.61s.08,57.59-65.94,57.59"/><line class="cls-2" x1="344.49" y1="191.33" x2="344.49" y2="330.2"/><line class="cls-2" x1="261.83" y1="191.33" x2="261.83" y2="330.2"/><line class="cls-2" x1="344.49" y1="194.82" x2="233.51" y2="194.82"/><line class="cls-2" x1="344.49" y1="326.7" x2="77.84" y2="326.7"/><line class="cls-2" x1="210.69" y1="26.19" x2="308.89" y2="124.4"/><polyline class="cls-2" points="212.14 144.54 217.3 149.7 224.32 156.72 250.45 182.84"/><line class="cls-2" x1="152.24" y1="84.64" x2="201.35" y2="133.74"/><line class="cls-2" x1="213.16" y1="28.67" x2="135.38" y2="106.45"/><line class="cls-2" x1="306.42" y1="121.92" x2="117.87" y2="310.47"/><line class="cls-3" x1="69.44" y1="106.45" x2="69.44" y2="155.09"/><line class="cls-3" x1="93.76" y1="130.77" x2="45.12" y2="130.77"/></svg>